# Blender v2.78 (sub 0) OBJ File: ''
# www.blender.org
mtllib untitled.mtl
o 立方体_立方体.001
v 0.000000 0.013342 1.673210
v 0.000000 0.980268 1.673210
v 0.000000 0.980268 1.673210
v 0.000000 0.013342 1.673210
v 1.000000 0.013342 -0.673211
v 1.000000 0.980268 -0.673211
v 1.000000 0.980268 0.673210
v 1.000000 0.013342 0.673210
v -1.000000 -0.980268 -0.673211
v -0.980785 -0.980268 -0.868301
v -0.923880 -0.980268 -1.055894
v -0.831470 -0.980268 -1.228781
v -0.707107 -0.980268 -1.380317
v -0.555570 -0.980268 -1.504680
v -0.382683 -0.980268 -1.597090
v -0.195090 -0.980268 -1.653996
v 0.000000 -0.980268 -1.673211
v 0.000000 -0.980268 -1.673211
v 0.195090 -0.980268 -1.653996
v 0.382683 -0.980268 -1.597090
v 0.555570 -0.980268 -1.504680
v 0.707107 -0.980268 -1.380317
v 0.831470 -0.980268 -1.228781
v 0.923880 -0.980268 -1.055894
v 0.980785 -0.980268 -0.868301
v 1.000000 -0.980268 -0.673211
v 1.000000 -0.980268 0.673210
v 0.980785 -0.980268 0.868301
v 0.923880 -0.980268 1.055894
v 0.831470 -0.980268 1.228781
v 0.707107 -0.980268 1.380317
v 0.555570 -0.980268 1.504680
v 0.382683 -0.980268 1.597090
v 0.195090 -0.980268 1.653996
v 0.000000 -0.980268 1.673210
v 0.000000 -0.980268 1.673210
v -0.195090 -0.980268 1.653996
v -0.382683 -0.980268 1.597090
v -0.555570 -0.980268 1.504680
v -0.707107 -0.980268 1.380317
v -0.831470 -0.980268 1.228781
v -0.923880 -0.980268 1.055894
v -0.980785 -0.980268 0.868301
v -1.000000 -0.980268 0.673210
v 0.195090 0.013342 1.653996
v 0.382683 0.013342 1.597090
v 0.555570 0.013342 1.504680
v 0.707107 0.013342 1.380317
v 0.831470 0.013342 1.228781
v 0.923880 0.013342 1.055894
v 0.980785 0.013342 0.868301
v 0.980785 0.980268 -0.868301
v 0.923880 0.980268 -1.055894
v 0.831470 0.980268 -1.228781
v 0.707107 0.980268 -1.380317
v 0.555570 0.980268 -1.504680
v 0.382683 0.980268 -1.597090
v 0.195090 0.980268 -1.653996
v 0.000000 0.980268 -1.673211
v 0.000000 0.980268 -1.673211
v -0.195090 0.980268 -1.653996
v -0.382683 0.980268 -1.597090
v -0.555570 0.980268 -1.504680
v -0.707107 0.980268 -1.380317
v -0.831470 0.980268 -1.228781
v -0.923880 0.980268 -1.055894
v -0.980785 0.980268 -0.868301
v -1.000000 0.980268 -0.673211
v -1.000000 0.980268 0.673210
v -0.980785 0.980268 0.868301
v -0.923880 0.980268 1.055894
v -0.831470 0.980268 1.228781
v -0.707107 0.980268 1.380317
v -0.555570 0.980268 1.504680
v -0.382683 0.980268 1.597090
v -0.195090 0.980268 1.653996
v 0.195090 0.980268 1.653996
v 0.382683 0.980268 1.597090
v 0.555570 0.980268 1.504680
v 0.707107 0.980268 1.380317
v 0.831470 0.980268 1.228781
v 0.923880 0.980268 1.055894
v 0.980785 0.980268 0.868301
v -0.195090 0.013342 1.653996
v -0.382683 0.013342 1.597090
v -0.555570 0.013342 1.504680
v -0.707107 0.013342 1.380317
v -0.831470 0.013342 1.228781
v -0.923880 0.013342 1.055894
v -0.980785 0.013342 0.868301
v -1.000000 0.013342 0.673210
v 0.980785 0.013342 -0.868301
v 0.923880 0.013342 -1.055894
v 0.831470 0.013342 -1.228781
v 0.707107 0.013342 -1.380317
v 0.555570 0.013342 -1.504680
v 0.382683 0.013342 -1.597090
v 0.195090 0.013342 -1.653996
v 0.000000 0.013342 -1.673211
v -1.000000 0.013342 -0.673211
v 0.000000 0.013342 -1.673211
v -0.195090 0.013342 -1.653996
v -0.382683 0.013342 -1.597090
v -0.555570 0.013342 -1.504680
v -0.707107 0.013342 -1.380317
v -0.831470 0.013342 -1.228781
v -0.923880 0.013342 -1.055894
v -0.980785 0.013342 -0.868301
v 2.481385 -1.150812 5.567562
v 2.481385 0.849188 5.567562
v -2.481385 0.849188 5.567562
v -2.481385 -1.150812 5.567562
v 3.481385 -1.150810 -4.567563
v 3.481385 0.849190 -4.567563
v 3.481385 0.849188 4.567562
v 3.481385 -1.150812 4.567562
v 3.188492 0.849188 5.274668
v 3.312855 0.849188 5.123132
v 3.173539 0.849188 4.907690
v 3.055767 0.849188 5.055105
v 3.462170 -1.150810 -4.762653
v 3.462170 0.849190 -4.762653
v 3.405265 -1.150810 -4.950246
v 3.405265 0.849190 -4.950246
v 3.312855 -1.150810 -5.123132
v 3.312855 0.849190 -5.123132
v 3.188492 -1.150810 -5.274669
v 3.188492 0.849190 -5.274669
v 3.036955 -1.150810 -5.399032
v 3.036955 0.849190 -5.399032
v 2.864069 -1.150810 -5.491442
v 2.864069 0.849190 -5.491442
v 2.676475 -1.150810 -5.548348
v 2.676475 0.849190 -5.548348
v 2.481385 -1.150810 -5.567563
v 2.481385 0.849190 -5.567563
v -3.481385 -1.150810 -4.567563
v -3.462170 -1.150810 -4.762653
v -3.405265 -1.150810 -4.950246
v -3.312855 -1.150810 -5.123132
v -3.188492 -1.150810 -5.274669
v -3.036955 -1.150810 -5.399032
v -2.864068 -1.150810 -5.491442
v -2.676475 -1.150810 -5.548348
v -2.481385 -1.150810 -5.567563
v 3.462170 -1.150812 4.762652
v 3.405265 -1.150812 4.950245
v 3.312855 -1.150812 5.123132
v 3.188492 -1.150812 5.274668
v 3.036955 -1.150812 5.399031
v 2.864069 -1.150812 5.491441
v 2.676475 -1.150812 5.548347
v -2.676475 -1.150812 5.548347
v -2.864068 -1.150812 5.491441
v -3.036955 -1.150812 5.399031
v -3.188492 -1.150812 5.274668
v -3.312855 -1.150812 5.123132
v -3.405265 -1.150812 4.950245
v -3.462170 -1.150812 4.762652
v -3.481385 -1.150812 4.567562
v 2.676475 0.849188 5.548347
v 2.864069 0.849188 5.491441
v 3.036955 0.849188 5.399031
v 3.405265 0.849188 4.950245
v 3.462170 0.849188 4.762652
v -2.565004 0.849190 -5.317267
v -2.745425 0.849190 -5.263960
v -2.745425 0.477005 -5.263960
v -2.565004 0.477005 -5.317267
v -2.676475 0.849188 5.548347
v -2.864068 0.849188 5.491441
v -3.036955 0.849188 5.399031
v -3.188492 0.849188 5.274668
v -3.312855 0.849188 5.123132
v -3.405265 0.849188 4.950245
v -3.462170 0.849188 4.762652
v -3.481385 0.849188 4.567562
v -3.481385 0.849190 -4.567563
v -2.481385 0.849190 -5.567563
v -2.676475 0.849190 -5.548348
v -2.864068 0.849190 -5.491442
v -3.036955 0.849190 -5.399032
v -3.188492 0.849190 -5.274669
v -3.312855 0.849190 -5.123132
v -3.405265 0.849190 -4.950246
v -3.462170 0.849190 -4.762653
v 3.311313 0.849190 -4.555129
v 3.325860 0.849190 -4.363513
v 2.565004 0.849188 5.317267
v 2.376942 0.849188 5.333221
v -3.055767 0.849188 5.055105
v -3.173539 0.849188 4.907690
v -2.376942 0.849188 5.333221
v -2.376942 0.849190 -5.333221
v 2.376942 0.849190 -5.333221
v -3.173539 0.849190 -4.907690
v -3.055767 0.849190 -5.055105
v -2.565004 0.849188 5.317267
v 2.745425 0.849190 -5.263960
v 2.911173 0.849190 -5.175418
v 3.259858 0.849188 4.738866
v -3.325859 0.849188 4.363513
v -3.325859 0.849190 -4.363513
v -3.259857 0.849188 4.738866
v 3.259858 0.849190 -4.738867
v 2.745425 0.849188 5.263960
v -3.259857 0.849190 -4.738867
v -2.745425 0.849188 5.263960
v 2.565004 0.849190 -5.317267
v 3.311313 0.849188 4.555129
v -3.311312 0.849188 4.555129
v 3.173540 0.849190 -4.907690
v 2.911173 0.849188 5.175418
v -3.311313 0.849190 -4.555129
v -2.911173 0.849188 5.175418
v 3.325860 0.849188 4.363513
v -2.911173 0.849190 -5.175418
v 3.055767 0.849190 -5.055105
v -3.259857 -0.107195 4.738866
v -3.173539 -0.107195 4.907690
v -3.173539 -0.917378 4.907690
v -3.259857 -0.917378 4.738866
v 3.311313 0.477003 4.555129
v 3.259858 0.477003 4.738866
v 3.311313 0.477005 -4.555129
v 3.325860 0.477005 -4.363513
v -2.911173 0.477005 -5.175418
v 3.325860 0.477003 4.363513
v -3.055767 0.477005 -5.055105
v -3.173539 0.477005 -4.907690
v -2.376942 0.477003 5.333221
v -2.565004 0.477003 5.317267
v -3.259857 0.477005 -4.738867
v -2.745425 0.477003 5.263960
v 2.745425 0.477005 -5.263960
v 2.911173 0.477005 -5.175418
v -3.311313 0.477005 -4.555129
v -2.911173 0.477003 5.175418
v 2.565004 0.477005 -5.317267
v -3.325859 0.477005 -4.363513
v -3.055767 0.477003 5.055105
v 2.376942 0.477005 -5.333221
v -2.376942 0.477005 -5.333221
v -3.173539 0.477003 4.907690
v 2.565004 0.477003 5.317267
v 2.376942 0.477003 5.333221
v -3.325859 0.477003 4.363513
v -3.259857 0.477003 4.738866
v 2.745425 0.477003 5.263960
v -3.311312 0.477003 4.555129
v 2.911173 0.477003 5.175418
v 3.055767 0.477003 5.055105
v 3.055767 0.477005 -5.055105
v 3.173540 0.477005 -4.907690
v 3.173539 0.477003 4.907690
v 3.259858 0.477005 -4.738867
v 3.325860 -0.917376 -4.363513
v 3.311313 -0.917376 -4.555129
v 3.259858 -0.917376 -4.738867
v 3.173540 -0.917376 -4.907690
v 3.055767 -0.917376 -5.055105
v 2.911173 -0.917376 -5.175418
v 2.745425 -0.917376 -5.263960
v 2.565004 -0.917376 -5.317267
v 2.376942 -0.917376 -5.333221
v -2.376942 -0.917376 -5.333221
v -2.565004 -0.917376 -5.317267
v -2.745425 -0.917376 -5.263960
v -2.911173 -0.917376 -5.175418
v -3.055767 -0.917376 -5.055105
v -3.173539 -0.917376 -4.907690
v -3.259857 -0.917376 -4.738867
v -3.311313 -0.917376 -4.555129
v -3.325859 -0.917376 -4.363513
v -3.325859 -0.917378 4.363513
v -3.311312 -0.917378 4.555129
v -3.055767 -0.917378 5.055105
v -2.911173 -0.917378 5.175418
v -2.745425 -0.917378 5.263960
v -2.565004 -0.917378 5.317267
v -2.376942 -0.917378 5.333221
v 2.376942 -0.917378 5.333221
v 2.565004 -0.917378 5.317267
v 2.745425 -0.917378 5.263960
v 2.911173 -0.917378 5.175418
v 3.055767 -0.917378 5.055105
v 3.173539 -0.917378 4.907690
v 3.259858 -0.917378 4.738866
v 3.311313 -0.917378 4.555129
v 3.325860 -0.917378 4.363513
v 2.565004 -0.107195 5.317267
v 2.745425 -0.107195 5.263960
v -3.311312 -0.107195 4.555129
v 2.911173 -0.107195 5.175418
v -3.325859 -0.107195 4.363513
v 3.055767 -0.107195 5.055105
v -2.376942 -0.107195 5.333221
v 2.376942 -0.107195 5.333221
v 3.173539 -0.107195 4.907690
v -2.376942 -0.107193 -5.333221
v -2.565004 -0.107193 -5.317267
v 3.259858 -0.107195 4.738866
v 3.055767 -0.107193 -5.055105
v 2.911173 -0.107193 -5.175418
v -2.745425 -0.107193 -5.263960
v 3.311313 -0.107195 4.555129
v 3.173540 -0.107193 -4.907690
v -2.911173 -0.107193 -5.175418
v 3.325860 -0.107195 4.363513
v 3.311313 -0.107193 -4.555129
v 3.259858 -0.107193 -4.738867
v -3.055767 -0.107193 -5.055105
v 3.325860 -0.107193 -4.363513
v -3.173539 -0.107193 -4.907690
v -2.565004 -0.107195 5.317267
v -3.259857 -0.107193 -4.738867
v -2.745425 -0.107195 5.263960
v 2.745425 -0.107193 -5.263960
v -3.311313 -0.107193 -4.555129
v -2.911173 -0.107195 5.175418
v 2.565004 -0.107193 -5.317267
v -3.325859 -0.107193 -4.363513
v -3.055767 -0.107195 5.055105
v 2.376942 -0.107193 -5.333221
vn 0.0202 0.9996 0.0200
vn 0.0518 0.9987 0.0000
vn 0.0202 0.9996 -0.0200
vn 0.0000 0.9995 -0.0329
vn -0.0202 0.9996 -0.0200
vn -0.0412 0.9991 0.0067
vn 0.0000 0.0000 1.0000
vn 1.0000 -0.0000 0.0000
vn -0.0000 -1.0000 -0.0000
vn 0.0980 -0.0000 0.9952
vn 0.2903 -0.0000 0.9569
vn 0.4714 -0.0000 0.8819
vn 0.6344 -0.0000 0.7730
vn 0.7730 -0.0000 0.6344
vn 0.8819 -0.0000 0.4714
vn 0.9569 -0.0000 0.2903
vn 0.9952 0.0000 0.0980
vn -0.0000 1.0000 0.0000
vn -0.0980 -0.0000 0.9952
vn -0.2903 -0.0000 0.9569
vn -0.4714 -0.0000 0.8819
vn -0.6344 -0.0000 0.7730
vn -0.7730 -0.0000 0.6344
vn -0.8819 -0.0000 0.4714
vn -0.9569 -0.0000 0.2903
vn -0.9952 0.0000 0.0980
vn 0.9952 0.0000 -0.0980
vn 0.9569 0.0000 -0.2903
vn 0.8819 0.0000 -0.4714
vn 0.7730 0.0000 -0.6344
vn 0.6344 0.0000 -0.7730
vn 0.4714 0.0000 -0.8819
vn 0.2903 0.0000 -0.9569
vn 0.0980 0.0000 -0.9952
vn -1.0000 0.0000 0.0000
vn -0.0980 0.0000 -0.9952
vn -0.2903 0.0000 -0.9569
vn -0.4714 0.0000 -0.8819
vn -0.6344 0.0000 -0.7730
vn -0.7730 0.0000 -0.6344
vn -0.8819 0.0000 -0.4714
vn -0.9569 0.0000 -0.2903
vn -0.9952 0.0000 -0.0980
vn 0.2833 0.0000 0.9590
vn 0.0000 0.0000 -1.0000
vn 0.8904 0.0000 -0.4552
vn -0.9630 0.0000 -0.2697
vn -0.9971 0.0000 0.0757
vn 0.4712 0.0000 0.8820
vn -0.9971 0.0000 -0.0757
vn 0.6396 0.0000 0.7687
vn 0.7813 0.0000 0.6242
vn 0.0845 0.0000 -0.9964
vn 0.8904 0.0000 0.4552
vn 0.2834 0.0000 -0.9590
vn -0.4712 0.0000 0.8820
vn 0.9630 0.0000 0.2697
vn 0.4712 0.0000 -0.8820
vn -0.2833 0.0000 0.9590
vn 0.9971 0.0000 0.0757
vn 0.6396 0.0000 -0.7687
vn -0.0845 0.0000 0.9964
vn 0.7813 0.0000 -0.6242
vn -0.0845 0.0000 -0.9964
vn -0.2834 0.0000 -0.9590
vn 0.9630 0.0000 -0.2697
vn -0.4712 0.0000 -0.8820
vn 0.9971 0.0000 -0.0757
vn -0.6396 0.0000 -0.7687
vn -0.7813 0.0000 0.6242
vn -0.7813 0.0000 -0.6242
vn -0.8904 0.0000 0.4552
vn 0.0845 0.0000 0.9964
vn -0.6396 0.0000 0.7687
vn -0.9630 0.0000 0.2697
vn -0.8904 0.0000 -0.4552
vn -0.2833 0.0000 -0.9590
vn 0.2834 0.0000 0.9590
vn 0.2833 0.0000 -0.9590
vn -0.2834 0.0000 0.9590
vn 0.0000 0.9995 0.0329
usemtl マテリアル
s off
f 47//1 46//1 45//1 1//1 4//1 298//1 291//1 292//1 294//1 296//1 299//1 302//1 306//1 309//1 8//1 51//1 50//1 49//1 48//1
f 8//2 309//2 313//2 5//2
f 93//3 92//3 5//3 313//3 310//3 311//3 307//3 303//3 304//3 318//3 321//3 324//3 101//3 99//3 98//3 97//3 96//3 95//3 94//3
f 101//4 324//4 300//4
f 107//5 106//5 105//5 104//5 103//5 102//5 101//5 300//5 301//5 305//5 308//5 312//5 314//5 316//5 319//5 322//5 100//5 108//5
f 84//6 85//6 86//6 87//6 88//6 89//6 90//6 91//6 100//6 322//6 295//6 293//6 219//6 220//6 323//6 320//6 317//6 315//6 297//6 4//6
s 1
f 1//7 2//7 3//7 4//7
f 5//8 6//8 7//8 8//8
f 9//9 10//9 11//9 12//9 13//9 14//9 15//9 16//9 17//9 18//9 19//9 20//9 21//9 22//9 23//9 24//9 25//9 26//9 27//9 28//9 29//9 30//9 31//9 32//9 33//9 34//9 35//9 36//9 37//9 38//9 39//9 40//9 41//9 42//9 43//9 44//9
f 1//10 35//10 34//10 45//10
f 45//11 34//11 33//11 46//11
f 46//12 33//12 32//12 47//12
f 47//13 32//13 31//13 48//13
f 48//14 31//14 30//14 49//14
f 49//15 30//15 29//15 50//15
f 50//16 29//16 28//16 51//16
f 51//17 28//17 27//17 8//17
f 6//18 52//18 53//18 54//18 55//18 56//18 57//18 58//18 59//18 60//18 61//18 62//18 63//18 64//18 65//18 66//18 67//18 68//18 69//18 70//18 71//18 72//18 73//18 74//18 75//18 76//18 3//18 2//18 77//18 78//18 79//18 80//18 81//18 82//18 83//18 7//18
f 4//19 3//19 76//19 84//19
f 84//20 76//20 75//20 85//20
f 85//21 75//21 74//21 86//21
f 86//22 74//22 73//22 87//22
f 87//23 73//23 72//23 88//23
f 88//24 72//24 71//24 89//24
f 89//25 71//25 70//25 90//25
f 90//26 70//26 69//26 91//26
f 5//27 26//27 25//27 92//27
f 92//28 25//28 24//28 93//28
f 93//29 24//29 23//29 94//29
f 94//30 23//30 22//30 95//30
f 95//31 22//31 21//31 96//31
f 96//32 21//32 20//32 97//32
f 97//33 20//33 19//33 98//33
f 98//34 19//34 18//34 99//34
f 91//35 69//35 68//35 100//35
f 101//36 17//36 16//36 102//36
f 102//37 16//37 15//37 103//37
f 103//38 15//38 14//38 104//38
f 104//39 14//39 13//39 105//39
f 105//40 13//40 12//40 106//40
f 106//41 12//41 11//41 107//41
f 107//42 11//42 10//42 108//42
f 108//43 10//43 9//43 100//43
f 101//7 60//7 59//7 99//7
f 109//7 110//7 111//7 112//7
f 113//8 114//8 115//8 116//8
f 117//18 118//18 119//18 120//18
f 114//27 113//27 121//27 122//27
f 122//28 121//28 123//28 124//28
f 124//29 123//29 125//29 126//29
f 126//30 125//30 127//30 128//30
f 128//31 127//31 129//31 130//31
f 130//32 129//32 131//32 132//32
f 132//33 131//33 133//33 134//33
f 134//34 133//34 135//34 136//34
f 137//9 138//9 139//9 140//9 141//9 142//9 143//9 144//9 145//9 135//9 133//9 131//9 129//9 127//9 125//9 123//9 121//9 113//9 116//9 146//9 147//9 148//9 149//9 150//9 151//9 152//9 109//9 112//9 153//9 154//9 155//9 156//9 157//9 158//9 159//9 160//9
f 110//10 109//10 152//10 161//10
f 161//11 152//11 151//11 162//11
f 162//12 151//12 150//12 163//12
f 163//13 150//13 149//13 117//13
f 117//14 149//14 148//14 118//14
f 118//15 148//15 147//15 164//15
f 164//16 147//16 146//16 165//16
f 165//17 146//17 116//17 115//17
f 166//44 167//44 168//44 169//44
f 112//19 111//19 170//19 153//19
f 153//20 170//20 171//20 154//20
f 154//21 171//21 172//21 155//21
f 155//22 172//22 173//22 156//22
f 156//23 173//23 174//23 157//23
f 157//24 174//24 175//24 158//24
f 158//25 175//25 176//25 159//25
f 159//26 176//26 177//26 160//26
f 160//35 177//35 178//35 137//35
f 179//36 145//36 144//36 180//36
f 180//37 144//37 143//37 181//37
f 181//38 143//38 142//38 182//38
f 182//39 142//39 141//39 183//39
f 183//40 141//40 140//40 184//40
f 184//41 140//41 139//41 185//41
f 185//42 139//42 138//42 186//42
f 186//43 138//43 137//43 178//43
f 145//45 179//45 136//45 135//45
f 114//18 122//18 187//18 188//18
f 110//18 161//18 189//18 190//18
f 174//18 173//18 191//18 192//18
f 111//18 110//18 190//18 193//18
f 136//18 179//18 194//18 195//18
f 183//18 184//18 196//18 197//18
f 170//18 111//18 193//18 198//18
f 130//18 132//18 199//18 200//18
f 179//18 180//18 166//18 194//18
f 118//18 164//18 201//18 119//18
f 178//18 177//18 202//18 203//18
f 175//18 174//18 192//18 204//18
f 122//18 124//18 205//18 187//18
f 161//18 162//18 206//18 189//18
f 184//18 185//18 207//18 196//18
f 171//18 170//18 198//18 208//18
f 132//18 134//18 209//18 199//18
f 164//18 165//18 210//18 201//18
f 180//18 181//18 167//18 166//18
f 176//18 175//18 204//18 211//18
f 124//18 126//18 212//18 205//18
f 162//18 163//18 213//18 206//18
f 185//18 186//18 214//18 207//18
f 172//18 171//18 208//18 215//18
f 134//18 136//18 195//18 209//18
f 165//18 115//18 216//18 210//18
f 181//18 182//18 217//18 167//18
f 177//18 176//18 211//18 202//18
f 126//18 128//18 218//18 212//18
f 163//18 117//18 120//18 213//18
f 186//18 178//18 203//18 214//18
f 173//18 172//18 215//18 191//18
f 182//18 183//18 197//18 217//18
f 115//18 114//18 188//18 216//18
f 128//18 130//18 200//18 218//18
f 219//46 220//46 221//46 222//46
f 201//47 210//47 223//47 224//47
f 188//48 187//48 225//48 226//48
f 167//49 217//49 227//49 168//49
f 210//50 216//50 228//50 223//50
f 217//51 197//51 229//51 227//51
f 216//35 188//35 226//35 228//35
f 197//52 196//52 230//52 229//52
f 198//53 193//53 231//53 232//53
f 196//54 207//54 233//54 230//54
f 208//55 198//55 232//55 234//55
f 200//56 199//56 235//56 236//56
f 207//57 214//57 237//57 233//57
f 215//58 208//58 234//58 238//58
f 199//59 209//59 239//59 235//59
f 214//60 203//60 240//60 237//60
f 191//61 215//61 238//61 241//61
f 209//62 195//62 242//62 239//62
f 195//7 194//7 243//7 242//7
f 192//63 191//63 241//63 244//63
f 190//64 189//64 245//64 246//64
f 203//8 202//8 247//8 240//8
f 204//46 192//46 244//46 248//46
f 189//65 206//65 249//65 245//65
f 211//66 204//66 248//66 250//66
f 206//67 213//67 251//67 249//67
f 202//68 211//68 250//68 247//68
f 213//69 120//69 252//69 251//69
f 193//45 190//45 246//45 231//45
f 212//70 218//70 253//70 254//70
f 120//71 119//71 255//71 252//71
f 205//72 212//72 254//72 256//72
f 194//73 166//73 169//73 243//73
f 218//74 200//74 236//74 253//74
f 187//75 205//75 256//75 225//75
f 119//76 201//76 224//76 255//76
f 257//18 258//18 259//18 260//18 261//18 262//18 263//18 264//18 265//18 266//18 267//18 268//18 269//18 270//18 271//18 272//18 273//18 274//18 275//18 276//18 222//18 221//18 277//18 278//18 279//18 280//18 281//18 282//18 283//18 284//18 285//18 286//18 287//18 288//18 289//18 290//18
f 291//77 292//77 284//77 283//77
f 293//66 219//66 222//66 276//66
f 292//67 294//67 285//67 284//67
f 295//68 293//68 276//68 275//68
f 294//69 296//69 286//69 285//69
f 297//45 298//45 282//45 281//45
f 296//71 299//71 287//71 286//71
f 300//73 301//73 267//73 266//73
f 299//76 302//76 288//76 287//76
f 303//74 304//74 262//74 261//74
f 301//78 305//78 268//78 267//78
f 302//47 306//47 289//47 288//47
f 307//70 303//70 261//70 260//70
f 305//49 308//49 269//49 268//49
f 306//50 309//50 290//50 289//50
f 310//75 311//75 259//75 258//75
f 308//51 312//51 270//51 269//51
f 309//35 313//35 257//35 290//35
f 311//72 307//72 260//72 259//72
f 312//52 314//52 271//52 270//52
f 315//53 297//53 281//53 280//53
f 313//48 310//48 258//48 257//48
f 314//54 316//54 272//54 271//54
f 317//79 315//79 280//79 279//79
f 304//56 318//56 263//56 262//56
f 316//57 319//57 273//57 272//57
f 320//58 317//58 279//58 278//58
f 318//80 321//80 264//80 263//80
f 319//60 322//60 274//60 273//60
f 323//61 320//61 278//61 277//61
f 321//62 324//62 265//62 264//62
f 324//7 300//7 266//7 265//7
f 220//63 323//63 277//63 221//63
f 298//64 291//64 283//64 282//64
f 322//8 295//8 275//8 274//8
f 240//8 247//8 295//8 322//8
f 246//64 245//64 291//64 298//64
f 244//63 241//63 323//63 220//63
f 242//7 243//7 300//7 324//7
f 239//62 242//62 324//62 321//62
f 241//61 238//61 320//61 323//61
f 237//60 240//60 322//60 319//60
f 235//59 239//59 321//59 318//59
f 238//58 234//58 317//58 320//58
f 233//57 237//57 319//57 316//57
f 236//56 235//56 318//56 304//56
f 234//55 232//55 315//79 317//79
f 230//54 233//54 316//54 314//54
f 226//48 225//48 310//48 313//48
f 232//53 231//53 297//53 315//53
f 229//52 230//52 314//52 312//52
f 256//72 254//72 307//72 311//72
f 228//35 226//35 313//35 309//35
f 227//51 229//51 312//51 308//51
f 225//75 256//75 311//75 310//75
f 223//50 228//50 309//50 306//50
f 168//49 227//49 308//49 305//49
f 254//70 253//70 303//70 307//70
f 224//47 223//47 306//47 302//47
f 169//44 168//44 305//44 301//44
f 253//74 236//74 304//74 303//74
f 255//76 224//76 302//76 299//76
f 243//73 169//73 301//73 300//73
f 252//71 255//71 299//71 296//71
f 231//45 246//45 298//45 297//45
f 251//69 252//69 296//69 294//69
f 247//68 250//68 293//68 295//68
f 249//67 251//67 294//67 292//67
f 250//66 248//66 219//66 293//66
f 245//65 249//65 292//77 291//77
f 248//46 244//46 220//46 219//46
f 17//7 101//7 99//7 18//7
f 67//43 108//43 100//43 68//43
f 66//42 107//42 108//42 67//42
f 65//41 106//41 107//41 66//41
f 64//40 105//40 106//40 65//40
f 63//39 104//39 105//39 64//39
f 62//38 103//38 104//38 63//38
f 61//37 102//37 103//37 62//37
f 60//36 101//36 102//36 61//36
f 44//35 91//35 100//35 9//35
f 58//34 98//34 99//34 59//34
f 57//33 97//33 98//33 58//33
f 56//32 96//32 97//32 57//32
f 55//31 95//31 96//31 56//31
f 54//30 94//30 95//30 55//30
f 53//29 93//29 94//29 54//29
f 52//28 92//28 93//28 53//28
f 6//27 5//27 92//27 52//27
f 43//26 90//26 91//26 44//26
f 42//25 89//25 90//25 43//25
f 41//24 88//24 89//24 42//24
f 40//23 87//23 88//23 41//23
f 39//22 86//22 87//22 40//22
f 38//21 85//21 86//21 39//21
f 37//20 84//20 85//20 38//20
f 36//19 4//19 84//19 37//19
f 83//17 51//17 8//17 7//17
f 82//16 50//16 51//16 83//16
f 81//15 49//15 50//15 82//15
f 80//14 48//14 49//14 81//14
f 79//13 47//13 48//13 80//13
f 78//12 46//12 47//12 79//12
f 77//11 45//11 46//11 78//11
f 2//10 1//10 45//10 77//10
f 26//8 5//8 8//8 27//8
f 35//7 1//7 4//7 36//7
f 298//81 4//81 297//81
